<svg xmlns="http://www.w3.org/2000/svg" viewBox="0 0 64 64" fill="none">
  <!-- 구름 -->
  <path d="M14 36C10 36 6 32 6 28C6 24 10 20 14 20C14 14 20 10 26 10C30 10 34 12 36 16C38 14 40 14 42 14C48 14 52 18 52 24C52 24 56 26 56 30C56 34 52 36 50 36H14Z" stroke="#7C3AED" stroke-width="3" stroke-linejoin="round"/>
  <!-- 별 1 -->
  <path d="M20 46L22 50L26 50L23 53L24 57L20 54L16 57L17 53L14 50L18 50L20 46Z" stroke="#7C3AED" stroke-width="2.8" stroke-linejoin="round"/>
  <!-- 별 2 -->
  <path d="M40 44L41.5 47H45L42 49.5L43 53L40 51L37 53L38 49.5L35 47H38.5L40 44Z" stroke="#7C3AED" stroke-width="2.8" stroke-linejoin="round"/>
  <!-- 작은 별 3 -->
  <path d="M52 42L53 44.5H55.5L53.5 46L54 48.5L52 47L50 48.5L50.5 46L48.5 44.5H51L52 42Z" stroke="#7C3AED" stroke-width="2.8" stroke-linejoin="round"/>
</svg>
