<svg xmlns="http://www.w3.org/2000/svg" viewBox="0 0 64 64" fill="none">
  <!-- 엄지 아래 (thumbs down) -->
  <path d="M22 12L22 34C22 34 22 38 26 38H38C40 38 42 36 42 34L44 18C44 16 42 14 40 14H32V12C32 8 28 8 26 8C24 8 22 10 22 12Z" stroke="#7C3AED" stroke-width="3" stroke-linejoin="round" transform="rotate(180 32 28)"/>
  <!-- 손목/팔 -->
  <path d="M16 14H22V38H16C14 38 12 36 12 34V18C12 16 14 14 16 14Z" stroke="#7C3AED" stroke-width="3" stroke-linejoin="round" transform="rotate(180 17 28)"/>
  <!-- X 마크 -->
  <path d="M24 48L40 56" stroke="#7C3AED" stroke-width="3.5" stroke-linecap="round"/>
  <path d="M40 48L24 56" stroke="#7C3AED" stroke-width="3.5" stroke-linecap="round"/>
</svg>
