<svg xmlns="http://www.w3.org/2000/svg" viewBox="0 0 64 64" fill="none">
  <!-- 큰 말풍선 -->
  <path d="M8 12H48C50 12 52 14 52 16V36C52 38 50 40 48 40H20L12 48V40H8C6 40 4 38 4 36V16C4 14 6 12 8 12Z" stroke="#EA580C" stroke-width="3" stroke-linejoin="round"/>
  <!-- 넘치는 텍스트 줄 -->
  <path d="M12 20H44" stroke="#EA580C" stroke-width="2.8" stroke-linecap="round"/>
  <path d="M12 26H44" stroke="#EA580C" stroke-width="2.8" stroke-linecap="round"/>
  <path d="M12 32H36" stroke="#EA580C" stroke-width="2.8" stroke-linecap="round"/>
  <!-- 작은 말풍선 (넘침) -->
  <path d="M48 8H58C60 8 62 10 62 12V20C62 22 60 24 58 24H52L48 28V24" stroke="#EA580C" stroke-width="2.8" stroke-linecap="round" stroke-linejoin="round"/>
</svg>
